<svg width="39" height="40" viewBox="0 0 39 40" fill="none" xmlns="http://www.w3.org/2000/svg">
<path fillRule="evenodd" clipRule="evenodd" d="M11.7793 12.7305C13.9988 12.7305 16.4182 13.7749 18.0526 15.3978C18.6363 15.9774 19.6169 16.0764 20.3325 15.671C21.1912 15.1846 22.17 14.9017 23.1214 14.9017C25.7197 14.9017 27.8261 17.012 27.8261 19.6152C27.8261 22.2184 25.7197 24.3287 23.1214 24.3287C22.17 24.3287 21.1912 24.0458 20.3326 23.5594C19.6169 23.154 18.6363 23.2531 18.0527 23.8326C16.4182 25.4555 13.9989 26.5 11.7793 26.5C7.96645 26.5 4.87549 23.4176 4.87549 19.6152C4.87549 15.8129 7.96645 12.7305 11.7793 12.7305ZM32.2582 16.5805C33.9446 16.5805 35.3117 17.9392 35.3117 19.6152C35.3117 21.2912 33.9446 22.6499 32.2582 22.6499C30.5718 22.6499 29.2424 21.2912 29.2424 19.6152C29.2424 17.9392 30.5718 16.5805 32.2582 16.5805Z" fill="#EEEEEE"/>
</svg>
